<?xml version="1.0" encoding="iso-8859-1"?>
<!-- Uploaded to: SVG Repo, www.svgrepo.com, Generator: SVG Repo Mixer Tools -->
<svg fill="#000000" height="800px" width="800px" version="1.1" id="Layer_1" xmlns="http://www.w3.org/2000/svg" xmlns:xlink="http://www.w3.org/1999/xlink" 
	 viewBox="0 0 512.15 512.15" xml:space="preserve">
<g>
	<g>
		<path d="M491.253,2.95c-0.4-1.2-1.6-2.4-2.8-2.8c-1.2-0.4-2.8,0-4,1.2l-284,284c-0.4,0.4-0.4,0.4-0.4,0.8c-0.4,0-0.8,0.4-0.8,0.4
			l-172.8,172.8c-6,6-9.2,13.6-9.2,22c0,8.4,3.2,16,8.8,22c6,5.6,14,8.8,22,8.8s15.2-2.8,20.8-8c0.4,0,1.2-0.4,1.6-0.8l171.2-171.2
			l59.2,59.2c0.8,0.8,2,1.2,2.8,1.2s2-0.4,2.8-1.2c118.4-118.4,162.4-217.2,178.4-279.6C502.453,43.75,491.653,4.55,491.253,2.95z"
			/>
	</g>
</g>
</svg>